PathFileType	4	(X/Y/Z)	/Users/itak/Documents/Research/Walk-IL/dataset/trc/00487_00167.trc
DataRate	CameraRate	NumFrames	NumMarkers	Units	OrigDataRate	OrigDataStartFrame	OrigNumFrames
100.000000	100.000000	4	53	mm	100.000000	387	516
Frame#	Time	RPSI			LPSI			L3			STRN			T10			C7			CLAV			RBAK			LBAK			LSHO			LUPA			LAEL			LAOL			LWTS			LWPS			LFRA			LIFD			LHPS			LHTS			RSHO			RUPA			RAEL			RAOL			RWTS			RWPS			RFRA			RIFD			RHTS			RHPS			RBHD			LFHD			RFHD			LBHD			LHIP			RHIP			RASI			LASI			LKNE			LTHI			LANK			LTIP			LTOE			LMT1			LMT5			LHEE			RKNE			RTHI			RANK			RTIP			RTOE			RMT1			RMT5			RHEE			
		X1	Y1	Z1	X2	Y2	Z2	X3	Y3	Z3	X4	Y4	Z4	X5	Y5	Z5	X6	Y6	Z6	X7	Y7	Z7	X8	Y8	Z8	X9	Y9	Z9	X10	Y10	Z10	X11	Y11	Z11	X12	Y12	Z12	X13	Y13	Z13	X14	Y14	Z14	X15	Y15	Z15	X16	Y16	Z16	X17	Y17	Z17	X18	Y18	Z18	X19	Y19	Z19	X20	Y20	Z20	X21	Y21	Z21	X22	Y22	Z22	X23	Y23	Z23	X24	Y24	Z24	X25	Y25	Z25	X26	Y26	Z26	X27	Y27	Z27	X28	Y28	Z28	X29	Y29	Z29	X30	Y30	Z30	X31	Y31	Z31	X32	Y32	Z32	X33	Y33	Z33	X34	Y34	Z34	X35	Y35	Z35	X36	Y36	Z36	X37	Y37	Z37	X38	Y38	Z38	X39	Y39	Z39	X40	Y40	Z40	X41	Y41	Z41	X42	Y42	Z42	X43	Y43	Z43	X44	Y44	Z44	X45	Y45	Z45	X46	Y46	Z46	X47	Y47	Z47	X48	Y48	Z48	X49	Y49	Z49	X50	Y50	Z50	X51	Y51	Z51	X52	Y52	Z52	X53	Y53	Z53	

388	3.87	400.8783264160156	965.2572021484375	-348.7072143554688	258.8674011230469	965.6983032226562	-361.17578125	353.3728942871094	1056.27880859375	-370.5487670898438	369.3554382324219	1252.95703125	-634.6180419921875	356.8128967285156	1180.548461914062	-352.2594909667969	386.1300354003906	1449.760009765625	-412.408935546875	370.6545104980469	1365.693481445312	-597.8828125	474.2138061523438	1323.183715820312	-351.9109497070312	282.4340209960938	1406.864868164062	-381.0178833007812	207.9575653076172	1431.568725585938	-486.2327880859375	103.025390625	1318.587036132812	-487.9243774414062	58.2309455871582	1107.336669921875	-525.390380859375	115.3474884033203	1082.314819335938	-442.3252258300781	104.82861328125	911.931884765625	-622.4118041992188	41.81118011474609	896.2405395507812	-586.1582641601562	47.90861511230469	1022.795227050781	-557.4944458007812	96.01569366455078	751.92578125	-636.089111328125	39.71227645874023	819.9788818359375	-603.3555297851562	94.70229339599609	828.4931030273438	-649.6423950195312	543.8992309570312	1411.232788085938	-480.5772399902344	617.3460693359375	1349.150146484375	-464.4495544433594	686.7325439453125	1068.126953125	-488.2578430175781	646.755859375	1041.608276367188	-440.3829956054688	646.7206420898438	888.2079467773438	-628.8724365234375	703.6275024414062	860.5493774414062	-567.580810546875	698.175048828125	1011.41259765625	-502.4155578613281	659.6996459960938	738.9046630859375	-669.5625	663.507080078125	800.3389892578125	-668.4598388671875	703.6171875	779.7578735351562	-605.539794921875	484.0070190429688	1644.182739257812	-518.7636108398438	315.6293640136719	1660.492553710938	-637.8242797851562	444.6824645996094	1653.949340820312	-650.4539184570312	310.1307983398438	1658.039428710938	-483.1068420410156	149.3423614501953	866.703369140625	-505.7574462890625	544.3294067382812	853.9951171875	-450.6941833496094	492.6015014648438	894.9951782226562	-561.6239013671875	237.1294250488281	902.5460205078125	-597.3655395507812	157.0668792724609	449.0629272460938	-550.5983276367188	145.6758270263672	602.4568481445312	-560.0736694335938	122.7970275878906	42.47637557983398	-482.9078369140625	131.1154632568359	302.3598937988281	-544.9107666015625	211.7805480957031	41.9056282043457	-708.9474487304688	234.5910034179688	45.5525016784668	-628.7222290039062	123.175895690918	46.38691329956055	-636.7549438476562	183.9417114257812	45.89280319213867	-434.2073669433594	496.0915222167969	461.4390869140625	-479.4043579101562	546.3987426757812	719.9795532226562	-496.0410766601562	468.4399719238281	33.54284286499023	-456.489501953125	497.4910888671875	321.607421875	-487.2203369140625	428.9050903320312	46.66779327392578	-675.3655395507812	392.8155517578125	55.33345413208008	-613.23046875	499.4813842773438	38.70714950561523	-587.5089111328125	418.7589111328125	27.51445960998535	-394.6746826171875	
389	3.88	400.3478698730469	965.3641967773438	-350.3587036132812	258.3951110839844	965.9723510742188	-362.7628479003906	352.6676330566406	1056.23583984375	-372.0276489257812	368.433837890625	1253.285400390625	-635.7026977539062	355.9325866699219	1180.46630859375	-353.3949584960938	384.878173828125	1449.785034179688	-413.2158203125	369.5405578613281	1365.944213867188	-598.8034057617188	473.08349609375	1323.286743164062	-352.8369140625	281.2015991210938	1406.736206054688	-381.9095764160156	206.7667846679688	1431.575073242188	-487.1157836914062	101.9220275878906	1318.514892578125	-489.0173034667969	57.67630386352539	1107.157836914062	-526.8771362304688	114.8242492675781	1082.116333007812	-443.8803100585938	104.6437683105469	912.0244140625	-624.2651977539062	41.67325592041016	896.11083984375	-587.9910278320312	47.5003547668457	1022.654663085938	-559.1375122070312	96.02474975585938	751.9915771484375	-638.0830078125	39.77296447753906	819.8320922851562	-605.2290649414062	94.72537994384766	828.55126953125	-651.5966796875	542.7188110351562	1411.519653320312	-481.3800964355469	616.1602783203125	1349.419677734375	-465.2381286621094	684.9998779296875	1068.197021484375	-488.1673889160156	644.8163452148438	1042.27197265625	-440.0933532714844	645.565673828125	885.8155517578125	-625.9904174804688	702.2611694335938	859.3124389648438	-563.99169921875	696.5277709960938	1011.291259765625	-501.4456481933594	658.6083984375	735.708984375	-663.7097778320312	662.3568115234375	797.1151733398438	-663.8036499023438	702.3626708984375	777.8067016601562	-600.371337890625	482.5049743652344	1644.43603515625	-519.051025390625	314.1121215820312	1660.8359375	-638.0864868164062	443.211181640625	1654.509765625	-650.7332763671875	308.6289978027344	1658.001220703125	-483.4128112792969	148.8223114013672	866.8158569335938	-507.1073608398438	543.6388549804688	854.0313110351562	-452.436767578125	491.9861450195312	895.0831909179688	-563.3955078125	236.3817901611328	902.6591796875	-598.8792114257812	156.5059356689453	448.9676208496094	-549.9042358398438	145.0963897705078	602.3233032226562	-560.1506958007812	122.8063049316406	42.33843231201172	-482.9192810058594	130.6825866699219	302.4496154785156	-544.3447875976562	211.6989440917969	41.89170837402344	-708.9816284179688	234.4944610595703	45.61279678344727	-628.7306518554688	123.0063095092773	46.29144287109375	-636.7948608398438	183.8859558105469	45.88526153564453	-434.212646484375	495.547119140625	461.4710998535156	-480.641357421875	545.8690795898438	720.0869140625	-497.5380554199219	468.3731994628906	33.60499954223633	-456.5264282226562	497.0614929199219	321.6695251464844	-488.0704345703125	428.8490295410156	46.60928726196289	-675.438232421875	392.7107849121094	55.25873184204102	-613.3026123046875	499.4107360839844	38.73772430419922	-587.525390625	418.6401062011719	27.63232421875	-394.728271484375	
390	3.89	399.7628173828125	965.427734375	-351.9823608398438	257.8548583984375	966.1487426757812	-364.2938842773438	351.9350280761719	1056.157836914062	-373.4860534667969	367.4588317871094	1253.544677734375	-636.7652587890625	355.0631103515625	1180.355834960938	-354.5104370117188	383.6373291015625	1449.785400390625	-414.0267028808594	368.3778991699219	1366.14599609375	-599.7161865234375	471.9627990722656	1323.357421875	-353.7842407226562	279.9840087890625	1406.582763671875	-382.7833862304688	205.5895690917969	1431.543823242188	-487.9978637695312	100.7987899780273	1318.391845703125	-490.0064392089844	57.05670928955078	1106.921752929688	-528.1934204101562	114.2781753540039	1081.873046875	-445.2810668945312	104.4541320800781	912.1231689453125	-626.0335693359375	41.55866241455078	895.9461669921875	-589.730712890625	47.05947494506836	1022.472290039062	-560.62841796875	96.08383178710938	752.0899047851562	-640.03076171875	39.91023254394531	819.6427612304688	-607.0597534179688	94.79808807373047	828.640625	-653.50439453125	541.5225219726562	1411.757934570312	-482.2178039550781	614.970947265625	1349.656127929688	-466.0682678222656	683.2605590820312	1068.223510742188	-488.0711669921875	642.8673706054688	1042.9228515625	-439.7880554199219	644.3456420898438	883.3390502929688	-622.9671020507812	700.8515625	858.04541015625	-560.2908935546875	694.857177734375	1011.142578125	-500.4597473144531	657.33349609375	732.4291381835938	-657.5166015625	661.0750732421875	793.7775268554688	-658.8894653320312	700.98388671875	775.8082275390625	-594.9710693359375	480.972900390625	1644.653564453125	-519.3394165039062	312.5251159667969	1661.15869140625	-638.2848510742188	441.6672058105469	1655.059814453125	-650.9979248046875	307.1116943359375	1657.933837890625	-483.6607360839844	148.2255706787109	866.845947265625	-508.3822326660156	542.9178466796875	854.0630493164062	-454.1578674316406	491.3336791992188	895.1409301757812	-565.1448974609375	235.5929718017578	902.7035522460938	-600.3621215820312	155.9510803222656	448.8447265625	-549.2130126953125	144.4730224609375	602.1280517578125	-560.1412963867188	122.8446350097656	42.21697235107422	-482.9143981933594	130.2625122070312	302.4998779296875	-543.7782592773438	211.633056640625	41.8637809753418	-709.0294189453125	234.4365386962891	45.65263748168945	-628.7420043945312	122.8671112060547	46.21233749389648	-636.8323974609375	183.8830108642578	45.8674201965332	-434.2256774902344	495.0108947753906	461.5016174316406	-481.8421020507812	545.4793090820312	720.2357788085938	-498.8646850585938	468.3028869628906	33.66316223144531	-456.5616455078125	496.6347961425781	321.7345581054688	-488.907470703125	428.7858581542969	46.54734039306641	-675.5133056640625	392.597900390625	55.18280410766602	-613.379150390625	499.3419189453125	38.77157211303711	-587.5418701171875	418.5211791992188	27.74184608459473	-394.7865600585938	
391	3.9	399.1295471191406	965.4474487304688	-353.5743713378906	257.2466125488281	966.2219848632812	-365.7705383300781	351.1826782226562	1056.037475585938	-374.9218444824219	366.4268798828125	1253.734375	-637.8087768554688	354.1899108886719	1180.213989257812	-355.6300354003906	382.4065856933594	1449.760131835938	-414.8450622558594	367.1748352050781	1366.2998046875	-600.6249389648438	470.8466796875	1323.391845703125	-354.7452087402344	278.7846069335938	1406.40283203125	-383.6403503417969	204.4139709472656	1431.462036132812	-488.8764038085938	99.65785217285156	1318.200561523438	-490.8934631347656	56.37054443359375	1106.618774414062	-529.35693359375	113.6907958984375	1081.571655273438	-446.5353393554688	104.2642135620117	912.2061767578125	-627.7150268554688	41.46392440795898	895.7329711914062	-591.39111328125	46.58900833129883	1022.234436035156	-561.9855346679688	96.19355773925781	752.21142578125	-641.930419921875	40.11137771606445	819.4116821289062	-608.8639526367188	94.92137908935547	828.7494506835938	-655.3642578125	540.3139038085938	1411.936645507812	-483.0921325683594	613.7781982421875	1349.842163085938	-466.9396667480469	681.5213012695312	1068.192260742188	-487.9703674316406	640.92578125	1043.547119140625	-439.4696960449219	643.0534057617188	880.7919311523438	-619.8212890625	699.4134521484375	856.7593383789062	-556.5143432617188	693.1702880859375	1010.960632324219	-499.4665832519531	655.8796997070312	729.0999145507812	-651.0372924804688	659.6630249023438	790.3673095703125	-653.7556762695312	699.49609375	773.7866821289062	-589.3960571289062	479.4193115234375	1644.83349609375	-519.6334228515625	310.8796997070312	1661.462768554688	-638.4279174804688	440.0605773925781	1655.597778320312	-651.253662109375	305.5872497558594	1657.832641601562	-483.8582458496094	147.5465393066406	866.8071899414062	-509.5750732421875	542.1760864257812	854.0914916992188	-455.8592224121094	490.6475524902344	895.1669921875	-566.870361328125	234.7669525146484	902.67919921875	-601.8152465820312	155.403076171875	448.6962585449219	-548.5372924804688	143.8033905029297	601.8863525390625	-560.0350952148438	122.8878479003906	42.12424468994141	-482.893798828125	129.8541870117188	302.5051574707031	-543.220703125	211.5783081054688	41.82622528076172	-709.0896606445312	234.4091491699219	45.67597198486328	-628.7577514648438	122.7506332397461	46.14370727539062	-636.8671264648438	183.9204864501953	45.84124755859375	-434.2454528808594	494.4788208007812	461.5445251464844	-482.9928283691406	545.2352294921875	720.423095703125	-500.0156860351562	468.2286376953125	33.72302627563477	-456.59326171875	496.2125244140625	321.80029296875	-489.7247924804688	428.7109985351562	46.48093795776367	-675.5932006835938	392.4817810058594	55.10570526123047	-613.45849609375	499.2764282226562	38.80976867675781	-587.5580444335938	418.4066772460938	27.83864212036133	-394.8488464355469	
